<svg width="20" height="27" viewBox="0 0 20 27" fill="none" xmlns="http://www.w3.org/2000/svg">
<path d="M1.63587 4.55477C1.52325 4.11017 1.07139 3.84119 0.626791 3.95369C0.182012 4.06643 -0.0870281 4.51823 0.0256518 4.96295L5.45199 26.3732C5.54733 26.7495 5.88543 27 6.25652 27C6.32414 27 6.39279 26.9916 6.4613 26.9743C6.90584 26.8617 7.175 26.4097 7.06232 25.9651L1.63587 4.55477Z" fill="white"/>
<path d="M19.6984 10.5852C18.814 7.31978 17.9289 4.05465 17.0443 0.789269C16.9485 0.435809 16.7804 0.0566698 16.1486 0.0187499C11.1753 -0.34143 7.90976 4.61126 2.93643 4.25103C2.54397 4.20267 2.29173 4.40703 2.38755 4.76048C3.27213 8.0258 4.14987 11.2931 5.04153 14.5564C5.18463 15.0802 5.54481 15.2785 5.93739 15.327C10.9106 15.6872 14.1763 10.7345 19.1497 11.0947C19.5421 11.143 19.7942 10.9387 19.6984 10.5852ZM15.7956 1.25145C16.0396 2.15235 16.2839 3.05319 16.5279 3.95409C15.4817 3.98853 14.5584 4.1996 13.5799 4.56626C13.336 3.66537 13.0917 2.76447 12.8478 1.86363C13.8261 1.49709 14.7495 1.28583 15.7956 1.25145ZM5.54739 11.3518C5.26977 10.3283 4.99263 9.30452 4.71531 8.28092C5.81499 8.24906 6.79076 8.01074 7.81142 7.6073C7.56722 6.7064 7.32314 5.8055 7.07918 4.9046C8.07692 4.45862 9.01802 3.92469 9.9605 3.37323C10.2045 4.27407 10.4488 5.17496 10.6928 6.07586C9.75026 6.62726 8.8091 7.16138 7.81142 7.6073C8.0888 8.6309 8.36606 9.65462 8.64338 10.6782C7.62266 11.0816 6.64701 11.3199 5.54739 11.3518ZM9.38642 13.4205C9.13868 12.5064 8.89106 11.5923 8.64338 10.6781C9.63416 10.2355 10.5686 9.70604 11.5044 9.15848C11.752 10.0726 11.9997 10.9867 12.2473 11.9009C11.3117 12.4485 10.3771 12.9778 9.38642 13.4205ZM11.5246 9.14672C11.2474 8.12306 10.9701 7.0994 10.6928 6.07574C11.6352 5.52554 12.577 4.99904 13.5799 4.56633C13.8574 5.58992 14.1347 6.61358 14.412 7.63718C13.4092 8.07002 12.4671 8.59646 11.5246 9.14672ZM15.1723 10.3726C14.9245 9.45854 14.6769 8.54438 14.4292 7.63022C15.4018 7.26752 16.3204 7.05896 17.3598 7.02506C17.6075 7.93922 17.8552 8.85332 18.1029 9.76736C17.0635 9.80132 16.1448 10.0098 15.1723 10.3726Z" fill="white"/>
</svg>
