<svg width="26" height="27" viewBox="0 0 26 27" fill="none" xmlns="http://www.w3.org/2000/svg">
<g clip-path="url(#clip0)">
<path d="M20.4232 1.52871C19.5785 0.542899 18.4076 0 17.1262 0C15.6959 0 14.4561 0.702315 13.5408 2.03096C13.4721 2.13057 13.4079 2.23019 13.3478 2.3288C13.2876 2.23013 13.2234 2.13057 13.1548 2.03096C12.2394 0.702315 10.9996 0 9.56928 0C8.28787 0 7.11696 0.542899 6.27232 1.52866C5.47079 2.46417 5.0293 3.71481 5.0293 5.0502C5.0293 6.5014 5.57159 7.84048 6.73575 9.26452C7.75152 10.5069 9.20854 11.784 10.8957 13.2628C11.5191 13.8093 12.1638 14.3743 12.8489 14.9909C12.992 15.1197 13.1699 15.1841 13.3477 15.1841C13.5255 15.1841 13.7033 15.1197 13.8465 14.9909C14.5315 14.3745 15.1761 13.8094 15.7995 13.263C16.883 12.3133 17.8188 11.4931 18.6308 10.6976C20.2074 9.15288 21.6662 7.39962 21.6662 5.05026C21.6662 3.71481 21.2248 2.46422 20.4232 1.52871ZM17.5856 9.54707C16.8043 10.3126 15.8834 11.1197 14.8172 12.0543C14.3428 12.47 13.8563 12.8964 13.3478 13.3493C12.8391 12.8964 12.3524 12.4699 11.8781 12.0541C8.55706 9.14323 6.55243 7.38623 6.55243 5.05026C6.55233 3.07288 7.84928 1.58176 9.56923 1.58176C10.4881 1.58176 11.2696 2.03096 11.8919 2.91684C12.4027 3.64383 12.6123 4.39751 12.6138 4.40257C12.7052 4.74519 13.0054 4.98239 13.3477 4.98239C13.69 4.98239 13.9902 4.74519 14.0816 4.40257C14.0892 4.37436 14.8601 1.58176 17.1262 1.58176C18.8461 1.58176 20.1431 3.07293 20.1431 5.05026C20.1431 6.48299 19.4261 7.74376 17.5856 9.54707Z" fill="white"/>
<path d="M23.7125 15.9282C23.0807 15.9282 22.4713 16.2037 22.0405 16.6839L19.8022 19.1792C19.5129 18.2133 18.6442 17.51 17.6201 17.51H14.102C13.6095 17.51 13.1345 17.3239 12.7647 16.9859C10.776 15.1685 7.78672 15.1525 5.77908 16.9357C5.36506 16.327 4.68287 15.9283 3.91222 15.9283H0.764495C0.343925 15.9283 0.00292969 16.2824 0.00292969 16.7192V26.2092C0.00292969 26.646 0.343874 27.0001 0.764495 27.0001H3.91222C4.59614 27.0001 5.21039 26.6859 5.62943 26.1898L6.08042 26.3214C7.62305 26.7717 9.21768 27 10.8201 27H17.6201C19.2891 27 20.8833 26.1722 21.8847 24.7857L25.5409 19.7233C25.541 19.7232 25.541 19.7231 25.5411 19.723C25.8395 19.3099 25.9971 18.8181 25.9971 18.3007C25.9971 16.9925 24.9722 15.9282 23.7125 15.9282ZM4.67378 24.6274C4.67378 25.0635 4.33218 25.4183 3.91222 25.4183H1.52601V17.5099H3.91222C4.33213 17.5099 4.67378 17.8646 4.67378 18.3008V24.6274ZM24.3225 18.7742C24.3225 18.7742 24.3225 18.7742 24.3224 18.7743L20.6663 23.8367C19.951 24.8271 18.8122 25.4184 17.6201 25.4184H10.8202C9.35717 25.4184 7.90118 25.2099 6.49271 24.7988L6.19488 24.7118C6.19584 24.6838 6.19696 24.6558 6.19696 24.6275V18.6582L6.72767 18.1732C8.16173 16.8628 10.3246 16.8627 11.7587 18.1732C12.4067 18.7654 13.2389 19.0915 14.1021 19.0915H17.6202C18.0401 19.0915 18.3818 19.4463 18.3818 19.8824C18.3818 20.3184 18.0402 20.6732 17.6202 20.6732H12.2077C11.7872 20.6732 11.4462 21.0273 11.4462 21.4641C11.4462 21.9009 11.7871 22.2549 12.2077 22.2549H18.1305C18.7623 22.2549 19.3716 21.9796 19.8023 21.4995L23.155 17.7619C23.3008 17.5994 23.4988 17.5099 23.7125 17.5099C24.1324 17.5099 24.4741 17.8646 24.4741 18.3008C24.4741 18.4732 24.4217 18.6369 24.3225 18.7742Z" fill="white"/>
</g>
<defs>
<clipPath id="clip0">
<rect width="26" height="27" fill="white"/>
</clipPath>
</defs>
</svg>
