<svg width="32" height="30" viewBox="0 0 32 30" fill="none" xmlns="http://www.w3.org/2000/svg">
<path d="M8.30917 23.2679C6.18049 23.2679 4.28715 21.9051 3.59975 19.8761L3.55322 19.7232C3.39101 19.1861 3.3232 18.734 3.3232 18.282V9.2168L0.0976071 19.9838C-0.317225 21.5674 0.628114 23.2094 2.21432 23.6469L22.7738 29.1527C23.0304 29.2192 23.287 29.2511 23.5396 29.2511C24.8639 29.2511 26.0738 28.3722 26.4129 27.0772L27.6108 23.2679H8.30917Z" fill="white"/>
<path d="M11.9653 9.30714C13.4319 9.30714 14.6245 8.11449 14.6245 6.64795C14.6245 5.18141 13.4319 3.98877 11.9653 3.98877C10.4988 3.98877 9.30615 5.18141 9.30615 6.64795C9.30615 8.11449 10.4988 9.30714 11.9653 9.30714Z" fill="white"/>
<path d="M28.5852 0H8.64136C6.80918 0 5.31738 1.4918 5.31738 3.32398V17.9495C5.31738 19.7817 6.80918 21.2735 8.64136 21.2735H28.5852C30.4174 21.2735 31.9092 19.7817 31.9092 17.9495V3.32398C31.9092 1.4918 30.4174 0 28.5852 0ZM8.64136 2.65918H28.5852C28.9522 2.65918 29.25 2.95701 29.25 3.32398V12.7627L25.0499 7.86187C24.6044 7.33934 23.9596 7.06013 23.2669 7.04418C22.5781 7.04816 21.932 7.35397 21.4905 7.88315L16.5524 13.8105L14.9436 12.2056C14.0342 11.2962 12.5543 11.2962 11.6462 12.2056L7.97657 15.874V3.32398C7.97657 2.95701 8.27439 2.65918 8.64136 2.65918Z" fill="white"/>
</svg>
