<svg width="17" height="16" viewBox="0 0 17 16" fill="none" xmlns="http://www.w3.org/2000/svg">
<path d="M0.908133 14.6488L0.907924 14.6492C0.827945 14.7885 0.830758 14.9588 0.916563 15.0956C1.00173 15.2314 1.1536 15.3104 1.31237 15.3104H12.5616C12.7204 15.3104 12.8722 15.2314 12.9574 15.0956C13.0432 14.9588 13.046 14.7885 12.966 14.6492L12.9658 14.6488L7.34123 4.91347C7.34123 4.91346 7.34122 4.91345 7.34122 4.91344C7.2526 4.76001 7.0844 4.69644 6.93698 4.69644C6.78955 4.69644 6.62136 4.76001 6.53274 4.91344C6.53273 4.91345 6.53273 4.91346 6.53272 4.91347L0.908133 14.6488ZM2.09848 14.4204L6.93697 6.04592L11.7749 14.4204H2.09848Z" fill="white" stroke="white" stroke-width="0.3"/>
<path d="M12.2761 9.9209L14.8971 14.4204H12.562C12.3149 14.4204 12.0995 14.6117 12.0995 14.8654C12.0995 15.1191 12.3149 15.3104 12.562 15.3104H15.6867C15.8464 15.3104 15.9973 15.2311 16.0828 15.0955M12.2761 9.9209L16.0828 15.0956C16.0828 15.0955 16.0828 15.0955 16.0828 15.0955M12.2761 9.9209L11.21 12.0037L11.2099 12.0038C11.0963 12.2254 10.8224 12.3114 10.5968 12.2088C10.5968 12.2088 10.5968 12.2088 10.5968 12.2088L12.2761 9.9209ZM16.0828 15.0955C16.1701 14.9578 16.1715 14.7869 16.0908 14.6479L16.0907 14.6477L12.6535 8.7476C12.6535 8.74757 12.6535 8.7475 12.6534 8.74747C12.5647 8.59486 12.4019 8.52724 12.2487 8.52032L12.2488 8.51995L12.2382 8.52021C12.0693 8.52448 11.9132 8.61756 11.8356 8.76766L11.8354 8.76819L10.3806 11.6094C10.3806 11.6095 10.3806 11.6095 10.3805 11.6096M16.0828 15.0955L10.3805 11.6096M10.3805 11.6096L10.3805 11.6097L10.514 11.6781L10.3805 11.6096Z" fill="white" stroke="white" stroke-width="0.3"/>
<path d="M10.9743 3.76779L11.1116 3.82841C11.1868 3.65811 11.1439 3.46372 11.0098 3.33716L10.0967 2.47509L11.0104 1.61298L11.0105 1.61295C11.1444 1.48646 11.1874 1.29225 11.1123 1.12202C11.0387 0.953533 10.8679 0.85 10.6862 0.85H6.9365C6.68942 0.85 6.47402 1.04131 6.47402 1.29501V5.13015C6.47402 5.38385 6.68942 5.57516 6.9365 5.57516C7.18359 5.57516 7.39898 5.38385 7.39898 5.13015V4.1001H10.6862C10.8679 4.1001 11.0392 3.99651 11.1121 3.8271L10.9743 3.76779ZM10.9743 3.76779C10.9269 3.87812 10.8125 3.9501 10.6862 3.9501H7.39898L9.98743 2.5782L10.9069 3.44623C10.9962 3.5306 11.0231 3.65745 10.9743 3.76779ZM9.11275 2.79299L9.55454 3.21008H7.39898V1.74002H9.55478L9.11275 2.1577C9.11273 2.15772 9.11272 2.15773 9.1127 2.15775C8.92818 2.332 8.92819 2.61875 9.11275 2.79299Z" fill="white" stroke="white" stroke-width="0.3"/>
<path d="M6.03315 9.99925C6.16264 9.98985 6.28523 9.92855 6.36704 9.82557C6.36705 9.82556 6.36706 9.82555 6.36706 9.82554L6.93707 9.10835L7.50707 9.82554C7.50708 9.82555 7.50708 9.82556 7.50709 9.82557C7.58829 9.92777 7.71005 9.99057 7.8417 9.9993L6.56951 8.10503C6.56947 8.10508 6.56943 8.10513 6.56939 8.10518L5.95005 8.88499L5.27391 8.24665C5.09424 8.07702 4.80579 8.07702 4.62612 8.24665C4.44155 8.4209 4.44155 8.70768 4.62612 8.88194L5.67582 9.87296C5.77015 9.96273 5.89661 10.0094 6.03315 9.99925ZM6.03315 9.99925C6.03322 9.99924 6.03329 9.99924 6.03335 9.99923L6.02213 9.84965L6.03292 9.99926C6.033 9.99926 6.03307 9.99925 6.03315 9.99925ZM7.30451 8.10489L7.3045 8.10488L7.87355 10.0002L7.8745 10.0002C7.99378 10.0002 8.11042 9.95594 8.19808 9.87317L9.24801 8.88194C9.43258 8.70768 9.43258 8.4209 9.24801 8.24665L9.14612 8.35457L9.24801 8.24665C9.06834 8.07702 8.77989 8.07702 8.60022 8.24665L8.70319 8.35572L8.60022 8.24665L7.92409 8.88499L7.30451 8.10489Z" fill="white" stroke="white" stroke-width="0.3"/>
</svg>
