<svg width="23" height="23" viewBox="0 0 23 23" fill="none"
    xmlns="http://www.w3.org/2000/svg">
    <path d="M11.25 22.5C5.0451 22.5 0 17.4549 0 11.25C0 5.0451 5.0451 0 11.25 0C17.4549 0 22.5 5.0451 22.5 11.25C22.5 17.4549 17.4549 22.5 11.25 22.5ZM11.25 1.73969C6.03093 1.73969 1.73969 5.97294 1.73969 11.25C1.73969 16.5271 6.03093 20.7603 11.25 20.7603C16.5271 20.7603 20.7603 16.4691 20.7603 11.25C20.7603 6.03093 16.5271 1.73969 11.25 1.73969Z" fill="#00AEEF"/>
    <path d="M11.2496 19.4846C6.66837 19.4846 2.95703 15.7732 2.95703 11.1921C2.95703 6.61088 6.66837 2.89954 11.2496 2.89954C15.8307 2.89954 19.5421 6.61088 19.5421 11.1921C19.5421 15.8312 15.8307 19.4846 11.2496 19.4846ZM11.2496 4.69722C7.6542 4.69722 4.69672 7.65469 4.69672 11.2501C4.69672 14.8454 7.6542 17.8029 11.2496 17.8029C14.8449 17.8029 17.8024 14.8454 17.8024 11.2501C17.8024 7.65469 14.8449 4.69722 11.2496 4.69722Z" fill="#00AEEF"/>
    <path d="M9.6843 19.0206C9.22038 19.0206 8.81445 18.6147 8.81445 18.1508V6.84276C8.81445 6.55281 8.98842 6.26286 9.22038 6.08889C9.45234 5.91492 9.80028 5.91492 10.0902 6.0309L16.3531 9.16235C16.6431 9.33632 16.817 9.62626 16.817 9.91621C16.817 10.2642 16.6431 10.5541 16.3531 10.6701L10.6121 13.8015H10.5541V18.0348C10.5541 18.6727 10.1482 19.0206 9.6843 19.0206ZM10.5541 8.2925V11.9459L14.0915 10.0322L10.5541 8.2925Z" fill="#00AEEF"/>
</svg>
